PathFileType	4	(X/Y/Z)	TVC_9_Cal_03_0_static_RCNL2025.trc
DataRate	CameraRate	NumFrames	NumMarkers	Units	OrigDataRate	OrigDataStartFrame	OrigNumFrames
100	100	5	27	mm	100	196	260
Frame#	Time	R_Shoulder			L_Shoulder			C7			J_Notch			R_Elbow			L_Elbow			R_Wrist			L_Wrist			R_Asis			L_Asis			R_Psis			L_Psis			Sacral			Thoracic			Sternum			R_Thigh_Lateral			R_Knee_Lateral			R_Shank_Lateral			R_Ankle_Lateral			R_Heel			R_Toe			L_Thigh_Lateral			L_Knee_Lateral			L_Shank_Lateral			L_Ankle_Lateral			L_Heel			L_Toe		
		X1	Y1	Z1	X2	Y2	Z2	X3	Y3	Z3	X4	Y4	Z4	X5	Y5	Z5	X6	Y6	Z6	X7	Y7	Z7	X8	Y8	Z8	X9	Y9	Z9	X10	Y10	Z10	X11	Y11	Z11	X12	Y12	Z12	X13	Y13	Z13	X14	Y14	Z14	X15	Y15	Z15	X16	Y16	Z16	X17	Y17	Z17	X18	Y18	Z18	X19	Y19	Z19	X20	Y20	Z20	X21	Y21	Z21	X22	Y22	Z22	X23	Y23	Z23	X24	Y24	Z24	X25	Y25	Z25	X26	Y26	Z26	X27	Y27	Z27
196	1.95000000	-192.195633	1390.891479	-119.324181	-311.518829	1363.753540	-492.951324	-314.455414	1445.549316	-301.435059	-163.241837	1341.399414	-321.486572	-203.903412	1112.018433	59.560493	-301.906952	1041.969604	-601.792297	-144.336212	873.082092	43.453101	-234.346199	807.207916	-568.190796	-170.952927	938.545837	-130.665649	-237.711182	935.509094	-434.328613	-387.527283	952.112244	-193.918884	-405.787842	949.167419	-290.732635	-396.657562	950.639832	-242.325760	-403.413574	1168.034790	-254.361450	-111.154922	1150.514404	-320.337311	-252.145370	539.735291	-54.335266	-291.959167	443.071320	-114.785240	-269.453278	302.321777	-70.173729	-301.138397	74.156334	-140.176926	-355.302826	60.243725	-201.588379	-172.193588	48.993309	-179.600815	-238.152313	569.322510	-465.559784	-254.309570	419.815125	-412.668091	-274.592621	303.635559	-456.205994	-308.996460	79.771660	-378.901367	-354.263092	53.580425	-315.682281	-168.243423	44.811310	-372.134369
197	1.96000000	-192.170151	1390.893799	-119.345612	-311.592102	1363.765625	-492.946442	-314.421478	1445.514038	-301.435852	-163.244476	1341.364136	-321.461487	-203.912125	1112.027222	59.584972	-301.805054	1042.003296	-601.837769	-144.285034	873.028992	43.365686	-234.137947	807.220734	-568.249969	-171.016083	938.564819	-130.589340	-237.726898	935.502563	-434.308441	-387.441956	952.033203	-194.074844	-405.713867	949.095764	-290.826874	-396.577911	950.564484	-242.450859	-403.358887	1168.039917	-254.377243	-111.144836	1150.495605	-320.359741	-252.027557	539.692627	-54.294838	-291.885803	443.070801	-114.815521	-269.191345	302.216461	-70.166679	-300.910339	74.079872	-140.454453	-355.361694	60.284740	-201.602844	-172.185944	48.981701	-179.603470	-238.087784	569.395447	-465.539734	-254.297958	419.805389	-412.706268	-274.193787	303.096527	-455.991730	-308.888702	79.801765	-378.948090	-354.256775	53.634171	-315.683990	-168.165070	44.850864	-372.195282
198	1.97000000	-192.207092	1390.891479	-119.328316	-311.599548	1363.785645	-492.880859	-314.469666	1445.552490	-301.412628	-163.250824	1341.325195	-321.477905	-203.855179	1111.977539	59.528839	-301.789490	1042.081543	-601.886841	-144.312759	872.992798	43.296744	-233.954636	807.308319	-568.175507	-171.032318	938.567078	-130.529480	-237.655685	935.450439	-434.260315	-387.479218	952.037231	-194.127136	-405.699066	949.134888	-290.825409	-396.589142	950.586060	-242.476273	-403.439484	1168.053223	-254.337433	-111.150101	1150.512451	-320.367157	-251.977158	539.687500	-54.302464	-291.828644	443.119324	-114.806038	-269.133881	302.188416	-70.172119	-301.129669	74.239365	-140.180710	-355.387451	60.315781	-201.584839	-172.153656	48.991692	-179.643188	-237.850494	569.348938	-465.582336	-254.223358	419.777924	-412.696991	-274.435211	303.453217	-456.084412	-308.954681	79.813087	-378.904236	-354.218231	53.566864	-315.724548	-168.194351	44.816956	-372.180847
199	1.98000000	-192.205246	1390.855103	-119.316109	-311.585205	1363.805542	-492.949921	-314.457855	1445.512451	-301.444092	-163.249161	1341.313110	-321.479187	-203.834702	1111.971191	59.502266	-301.653687	1042.098511	-601.867065	-144.282280	872.987122	43.160795	-233.788605	807.322144	-568.261444	-171.031631	938.573425	-130.502594	-237.654922	935.426331	-434.231323	-387.512451	952.021606	-194.073730	-405.706909	949.123108	-290.819061	-396.609680	950.572357	-242.446396	-403.511902	1168.066650	-254.391129	-111.142181	1150.429077	-320.196442	-251.781662	539.655151	-54.350651	-291.751953	443.087524	-114.794762	-269.346893	302.295349	-70.189781	-300.829956	74.078690	-140.508316	-355.338989	60.274956	-201.589584	-172.141006	48.979805	-179.650650	-237.492416	569.353333	-465.555695	-254.041870	419.771362	-412.665619	-274.085571	303.184509	-456.095825	-308.886414	79.744484	-378.972229	-354.155762	53.552582	-315.678772	-168.202759	44.815029	-372.166199
200	1.99000000	-192.167404	1390.823608	-119.372368	-311.519714	1363.823608	-492.963684	-314.418976	1445.498413	-301.433929	-163.244232	1341.281982	-321.453918	-203.900192	1111.836914	59.474396	-301.572174	1042.117188	-601.913574	-144.265511	872.981934	43.117366	-233.534508	807.397186	-568.120209	-171.095779	938.590881	-130.480240	-237.604767	935.434387	-434.302917	-387.552490	952.050476	-194.038956	-405.690796	949.106750	-290.843140	-396.621643	950.578613	-242.441048	-403.452545	1168.010986	-254.497787	-111.166023	1150.396851	-320.144440	-251.779907	539.739624	-54.157333	-291.654907	443.051453	-114.856522	-269.316650	302.352936	-70.236885	-301.084961	74.194466	-140.184296	-355.311310	60.253448	-201.590439	-172.126633	48.935780	-179.640396	-237.223587	569.307312	-465.578461	-253.823151	419.712585	-412.622650	-273.979797	303.072235	-455.953247	-308.863251	79.736526	-379.003448	-354.137177	53.539124	-315.665833	-168.179321	44.774387	-372.158478
